# xmcd
#
# Track frame offsets:
#	150
#	14095
#	25302
#	35367
#	51221
#	62868
#	74020
#	84069
#	97149
#	112058
#	126920
#	139308
#	163775
#	175758
#	188905
#	200376
#	215248
#	230259
#	241877
#
# Disc length: 3423 seconds
#
# Revision: 0
# Processed by: cddbd v1.5.2PL0 Copyright (c) Steve Scherf et al.
# Submitted via: EasyCDDAExtractor 16.0.8.2
#
DISCID=1d0d5d13
DTITLE=Συλλογικός δίσκος - Τα ωραιότερα ιταλικά τραγούδια 5
DYEAR=2011
DGENRE=Ξένη ιταλική
TTITLE0=Ornella Vanoni - Senza fine
TTITLE1=Adriano Celentano - La mezza luna
TTITLE2=Betty Curtis - Tango del mare
TTITLE3=Renato Carosone - La panse
TTITLE4=Milva - Mon dieu
TTITLE5=Edoardo Vianello - Il capello
TTITLE6=Mina - Nessuno
TTITLE7=Fred Buscaglione - Eri piccolo cosi
TTITLE8=Connie Francis - Ritorna a me
TTITLE9=Giorgio Gaber - Una fetta di limone
TTITLE10=Sophia Loren - Tu vuo fa' l' Americano
TTITLE11=Umberto Bindi - Il nostro concerto
TTITLE12=Adriano Celentano - Personality
TTITLE13=Connie Francis - The loveliest night of the year
TTITLE14=Caterina Valente - Amedeo (Amadeo, ich will warten)
TTITLE15=Peppino Di Capri - Lassame (Let me go)
TTITLE16=Domenico Modugno - Io mammeta e tu
TTITLE17=Aurelio Fierro - Carolina, dai!
TTITLE18=Sophia Loren - Felicita
EXTD=
EXTT0=
EXTT1=
EXTT2=
EXTT3=
EXTT4=
EXTT5=
EXTT6=
EXTT7=
EXTT8=
EXTT9=
EXTT10=
EXTT11=
EXTT12=
EXTT13=
EXTT14=
EXTT15=
EXTT16=
EXTT17=
EXTT18=
PLAYORDER=
